<svg width="80" height="32" viewBox="0 0 80 32" fill="none" xmlns="http://www.w3.org/2000/svg">
<path d="M67.633 15.7205L67.633 16.3903L55 24.2925L55 32L80 16.3624L80 15.6926L55 -1.09278e-06L55 7.79041L67.633 15.7205Z" fill="#AD5E5C"/>
<path d="M11.424 18.632C11.424 21.968 8.928 23 5.016 23H1.68V8.144H4.416C7.776 8.144 10.152 9.008 10.152 11.744C10.152 13.376 9.144 14.432 7.536 14.648C10.032 14.912 11.424 16.208 11.424 18.632ZM8.544 11.816C8.568 9.992 7.2 9.392 4.584 9.392H3.264V14.12H4.68C7.56 14.12 8.544 13.448 8.544 11.816ZM9.816 18.56C9.816 16.592 8.64 15.392 5.16 15.392H3.264V21.656H5.4C8.544 21.656 9.768 20.72 9.816 18.56ZM13.263 18.008C13.263 15.104 15.087 12.8 18.351 12.8C20.823 12.8 22.263 13.856 23.031 14.456V23H21.615V20.696C20.895 22.472 19.215 23.168 17.871 23.168C14.847 23.168 13.263 20.936 13.263 18.008ZM14.727 18.056C14.727 20.24 15.783 21.872 18.015 21.872C19.575 21.872 21.615 20.672 21.615 17.216V15.104C20.967 14.576 19.935 14.096 18.399 14.096C15.999 14.096 14.727 15.848 14.727 18.056ZM30.4956 23.192C27.4716 23.192 25.2396 21.248 25.2396 17.984C25.2396 14.672 27.4716 12.776 30.4956 12.776C32.1276 12.776 33.3276 13.472 33.8316 13.808L33.5436 15.104C33.1356 14.864 32.0076 14.072 30.4956 14.072C28.3116 14.072 26.6556 15.44 26.6556 17.96C26.6556 20.48 28.2876 21.92 30.4956 21.92C31.8876 21.92 32.9676 21.248 33.5436 20.864L34.2156 22.016C32.9196 22.88 31.7196 23.192 30.4956 23.192ZM37.4475 23H36.0075V8.24L37.4475 7.952V23ZM37.6155 17.168L42.0795 12.968H43.9755L39.2955 17.168L45.0555 23H43.1595L37.6155 17.168Z" fill="#884544"/>
</svg>
