<svg width="77" height="77" viewBox="0 0 77 77" fill="none" xmlns="http://www.w3.org/2000/svg">
<path d="M43.7246 44.075L45.6691 45.7885L22.0864 56.6442L21.7486 56.3465L29.5245 31.561L31.4405 33.2496L25.1458 52.8321L43.7254 44.0756L43.7246 44.075Z" fill="#ECEFF1"/>
<path d="M46.4744 28.3448L46.8122 28.6425L42.936 41.0792L46.8242 44.5056L54.4963 19.8951L54.1578 19.5968L30.6789 30.2775L34.61 33.7418L46.4744 28.3448Z" fill="#AD5E5C"/>
<path d="M36.5934 39.8404C37.2697 40.4364 38.301 40.3713 38.897 39.695C39.4929 39.0187 39.4278 37.9874 38.7516 37.3915C38.0753 36.7955 37.044 36.8606 36.448 37.5369C35.8521 38.2131 35.9172 39.2445 36.5934 39.8404Z" fill="#ECEFF1"/>
</svg>
