<svg width="263" height="221" viewBox="0 0 263 221" fill="none" xmlns="http://www.w3.org/2000/svg">
<path d="M90.8172 103.65H99.601L63.9604 188.15H62.4338L26.6658 103.65H35.3222L63.1981 170.768L90.8193 103.65H90.8172Z" fill="#ECEFF1"/>
<path d="M133.355 188.485C110.953 188.485 93.1328 173.243 93.1328 145.834C93.1328 118.425 110.953 103.318 133.355 103.318C155.758 103.318 173.705 118.559 173.705 145.968C173.705 173.377 155.758 188.485 133.355 188.485ZM133.355 110.802C115.917 110.802 101.787 123.369 101.787 145.832C101.787 168.295 115.917 180.996 133.355 180.996C150.794 180.996 165.051 168.562 165.051 145.966C165.051 123.369 150.921 110.802 133.355 110.802Z" fill="#ECEFF1"/>
<path d="M62.5591 55.1637H64.0857L82.0971 97.5033H99.6647L64.022 13.7154H62.4954L26.7274 97.5033H44.484L62.5591 55.1637Z" fill="#AD5E5C"/>
<path d="M227.045 101.809H236.336L203.876 153.418V184.703H195.475V153.683L162.889 101.807H171.928L199.677 146.197L227.045 101.807V101.809Z" fill="#ECEFF1"/>
<path d="M63.196 109.127C66.2519 109.127 68.7293 106.525 68.7293 103.315C68.7293 100.105 66.2519 97.5033 63.196 97.5033C60.14 97.5033 57.6627 100.105 57.6627 103.315C57.6627 106.525 60.14 109.127 63.196 109.127Z" fill="#ECEFF1"/>
</svg>
