<?xml version="1.0" encoding="UTF-8"?>
<svg id="Layer_1" data-name="Layer 1" xmlns="http://www.w3.org/2000/svg" viewBox="0 0 1280 1024">
  <rect width="1280" height="1024" fill="#eceff1"/>
  <path d="M442,480.26h42.75l-173.46,391.53h-7.43l-174.08-391.53h42.13l135.67,310.99,134.43-310.99Z" fill="#2b4141"/>
  <path d="M649.03,873.34c-109.03,0-195.76-70.62-195.76-197.62s86.73-197,195.76-197,196.38,70.62,196.38,197.62-87.35,197-196.38,197ZM649.03,513.4c-84.87,0-153.64,58.23-153.64,162.31s68.77,162.93,153.64,162.93,154.26-57.61,154.26-162.31-68.77-162.93-154.26-162.93Z" fill="#2b4141"/>
  <polygon points="304.47 255.6 311.9 255.6 399.56 451.78 485.06 451.78 311.59 63.55 304.16 63.55 130.08 451.78 216.5 451.78 304.47 255.6" fill="#ad5e5c"/>
  <path d="M1105.01,471.73h45.22l-157.98,239.13v144.96h-40.89v-143.73l-158.59-240.37h43.99l135.05,205.68,133.2-205.68Z" fill="#2b4141"/>
  <circle cx="307.57" cy="478.71" r="26.93" fill="#2b4141"/>
</svg>